<mxfile host="app.diagrams.net" modified="2023-07-06T14:39:41.563Z" agent="Mozilla/5.0 (Windows NT 10.0; Win64; x64) AppleWebKit/537.36 (KHTML, like Gecko) Chrome/114.0.0.0 Safari/537.36" version="21.6.1" etag="AIZztbcoESiJDzxqxQ5n" type="github">
  <diagram name="Pagina-1" id="CTqgA6pp8B2KWREUbsAX">
    <mxGraphModel>
      <root>
        <mxCell id="0" />
        <mxCell id="1" parent="0" />
      </root>
    </mxGraphModel>
  </diagram>
</mxfile>
